<svg width="256" height="256" viewBox="0 0 256 256" fill="none" xmlns="http://www.w3.org/2000/svg">
  <rect width="256" height="256" rx="56" fill="#FFF8F0"/>
  <rect x="42" y="46" width="172" height="164" rx="24" fill="url(#chipBg)" stroke="#1F1A16" stroke-opacity="0.18" stroke-width="6"/>
  <rect x="86" y="88" width="84" height="80" rx="14" fill="#0F6D62" fill-opacity="0.18" stroke="#0F6D62" stroke-width="8"/>
  <rect x="108" y="110" width="40" height="36" rx="8" fill="#B44F2C"/>
  <path d="M70 84H42" stroke="#1F1A16" stroke-width="8" stroke-linecap="round"/>
  <path d="M70 112H42" stroke="#1F1A16" stroke-width="8" stroke-linecap="round"/>
  <path d="M70 140H42" stroke="#1F1A16" stroke-width="8" stroke-linecap="round"/>
  <path d="M70 168H42" stroke="#1F1A16" stroke-width="8" stroke-linecap="round"/>
  <path d="M214 84H186" stroke="#1F1A16" stroke-width="8" stroke-linecap="round"/>
  <path d="M214 112H186" stroke="#1F1A16" stroke-width="8" stroke-linecap="round"/>
  <path d="M214 140H186" stroke="#1F1A16" stroke-width="8" stroke-linecap="round"/>
  <path d="M214 168H186" stroke="#1F1A16" stroke-width="8" stroke-linecap="round"/>
  <path d="M98 46V22" stroke="#1F1A16" stroke-width="8" stroke-linecap="round"/>
  <path d="M128 46V22" stroke="#1F1A16" stroke-width="8" stroke-linecap="round"/>
  <path d="M158 46V22" stroke="#1F1A16" stroke-width="8" stroke-linecap="round"/>
  <path d="M98 234V210" stroke="#1F1A16" stroke-width="8" stroke-linecap="round"/>
  <path d="M128 234V210" stroke="#1F1A16" stroke-width="8" stroke-linecap="round"/>
  <path d="M158 234V210" stroke="#1F1A16" stroke-width="8" stroke-linecap="round"/>
  <defs>
    <linearGradient id="chipBg" x1="60" y1="58" x2="202" y2="196" gradientUnits="userSpaceOnUse">
      <stop stop-color="#FFFDF9"/>
      <stop offset="1" stop-color="#F1E3D2"/>
    </linearGradient>
  </defs>
</svg>
